<?xml version="1.0"?>
<svg width="640" height="480" xmlns="http://www.w3.org/2000/svg" xmlns:svg="http://www.w3.org/2000/svg">
 <!-- Created with SVG-edit - https://github.com/SVG-Edit/svgedit-->
 <g class="layer">
  <title>Layer 1</title>
  <path d="m203.5,309.5c0,-1.700012 0,-2.600006 0,-3.5c0,-0.899994 -0.136559,-1.856628 0.284,-2.700012c0.329922,-0.661621 0.87606,-1.412476 1.517334,-1.96933c0.697014,-0.605255 0.999203,-1.433044 1.398666,-2.230652c0.400539,-0.799744 0.800007,-1.600006 1.210667,-2.421326c0.346508,-0.693024 0.759609,-1.510223 1.242001,-2.488525c0.349957,-0.709717 0.710804,-1.434875 1.180664,-2.523499c0.292789,-0.678375 0.539219,-1.342133 0.792,-1.992004c0.256523,-0.659485 0.856926,-2.060089 1.031834,-2.427307c0.357414,-0.750366 0.731812,-1.503357 1.342834,-2.580688c0.38887,-0.685638 0.79203,-1.318298 1.342834,-2.204987c0.49292,-0.793518 0.87059,-1.53894 1.3545,-2.187012c0.740135,-0.991241 1.344765,-1.4729 2,-1.989319c0.685913,-0.540619 1.404816,-1.044281 2.136002,-1.451996c1.0019,-0.558655 1.701164,-0.815338 2.433662,-1.024353c1.222336,-0.348816 1.696259,-0.413574 2.695503,-0.608978c0.523697,-0.102417 1.597786,-0.298492 2.136665,-0.400024c1.568344,-0.295532 2.059174,-0.39386 2.986504,-0.599976c0.87397,-0.194244 1.705124,-0.400848 2.91433,-0.700012c0.805199,-0.199219 1.641388,-0.395874 2.083336,-0.479156c0.942802,-0.177643 1.455185,-0.26889 3.202164,-0.399353c0.651024,-0.048615 1.329582,-0.067444 2.026497,-0.08548c0.708763,-0.018341 1.422646,-0.029297 2.837334,-0.034668c1.350662,-0.005127 1.986526,-0.00473 2.597336,0.001312c1.166756,0.011566 1.733917,0.019653 2.854164,0.111664c0.566719,0.046539 1.735886,0.201965 2.961838,0.453674c0.626511,0.128632 1.246117,0.27951 1.853996,0.432007c1.150856,0.288696 1.665909,0.466034 3.274002,0.830658c0.722687,0.163849 1.647812,0.318756 2.328171,0.531006c0.845421,0.263733 1.475845,0.50943 2.502998,0.959991c0.749382,0.328705 1.541687,0.717926 2.396996,1.140015c0.453712,0.223907 1.924217,0.959076 2.449165,1.223663c0.537735,0.271027 1.63327,0.83313 2.181335,1.125336c0.546608,0.291443 2.120186,1.184723 2.607834,1.489655c0.476334,0.297852 1.386353,0.914459 1.821999,1.241333c0.878998,0.659546 1.314209,1.016785 2.1875,1.791687c0.926201,0.821838 1.380714,1.268188 1.837334,1.717316c0.906082,0.891205 1.335327,1.338104 1.741333,1.781342c1.107666,1.209198 1.410461,1.588226 1.946671,2.29599c0.486847,0.642578 0.920212,1.258698 1.707993,2.477356c0.408493,0.631927 0.822876,1.327576 1.200012,2.135986c0.426193,0.913544 0.615982,1.438629 0.990997,2.573822c0.196259,0.594055 0.383911,1.201385 0.694656,2.431335c0.15181,0.600861 0.402527,1.750397 0.543671,2.802856c0.066498,0.495911 0.139297,1.471222 0.161667,2.46582c0.011734,0.522064 0.008224,2.270325 0.01033,2.92218c0.002197,0.677826 0.006897,1.374695 0.019501,2.083496c0.012695,0.713898 0.002914,1.427704 0.145844,3.479156c0.044312,0.635956 0.107895,1.242554 0.258667,2.370667c0.070267,0.525787 0.247101,1.498138 0.40799,2.79599c0.094833,0.764984 0.138947,1.493591 0.12001,2.220001c-0.020004,0.767456 -0.172134,2.077515 -0.237335,2.563995c-0.136078,1.015411 -0.292694,2.037048 -0.363342,2.53418c-0.191513,1.347748 -0.23996,2.080475 -0.373489,2.973511c-0.121338,0.811493 -0.401581,1.693054 -0.8405,2.692322c-0.309723,0.705109 -0.647995,1.385376 -1.11734,2.306183c-0.389374,0.763916 -0.851669,1.613922 -1.509338,2.160492c-0.740646,0.61554 -1.29187,0.84021 -2.154663,1.425323c-0.668884,0.453613 -1.353912,0.962158 -2.052002,1.451996c-0.967316,0.678741 -1.793625,1.1987 -2.2845,1.484497c-0.700851,0.408081 -1.705238,1.004211 -2.520828,1.520844c-0.547607,0.346893 -1.569046,0.996399 -2.274666,1.364014c-0.669312,0.348694 -1.642029,0.750732 -2.482666,1.03598c-0.621727,0.210968 -1.310631,0.416229 -2.485336,0.699829c-0.859871,0.207611 -1.756607,0.38327 -2.206665,0.464172c-0.88131,0.158417 -2.106789,0.330383 -2.845337,0.378845c-1.054756,0.069183 -1.773331,0.056488 -2.947998,0.057159c-0.862663,0.000488 -1.757332,0 -2.206665,0c-0.882668,0 -2.10778,-0.009247 -2.836334,0.004486c-0.993317,0.018707 -2.2164,0.152008 -2.817001,0.27951c-0.942513,0.200104 -1.606033,0.401154 -2.730667,0.549347c-0.830116,0.109375 -1.706505,0.136932 -2.579994,0.155975c-0.424118,0.009247 -1.922729,0.023254 -2.52417,0.006195c-1.064209,-0.030182 -1.901108,-0.137421 -2.87233,-0.357178c-0.715347,-0.161865 -1.458862,-0.357544 -2.523506,-0.804993c-0.690681,-0.290283 -1.327415,-0.630707 -2.147827,-1.180664c-0.89695,-0.601257 -1.484879,-1.190582 -2.352173,-1.652679c-0.658363,-0.350769 -1.495766,-0.618591 -2.069328,-0.885345c-1.21489,-0.565002 -1.806435,-0.947998 -2.397339,-1.361328c-0.609695,-0.426453 -1.503494,-1.17038 -2.095497,-1.701508c-0.587326,-0.526917 -1.395416,-1.312592 -2.182831,-1.908813c-0.656204,-0.496857 -1.470863,-0.891998 -2.168999,-1.44751c-0.674377,-0.536591 -1.260796,-1.1586 -1.927338,-1.906158c-0.684166,-0.767334 -1.076637,-1.391479 -1.450668,-2.02533c-0.547157,-0.927246 -1.027771,-1.7164 -1.374664,-2.264008c-0.516655,-0.815582 -0.947998,-1.597229 -1.5,-2.458344c-0.36422,-0.568176 -1.171471,-1.274841 -1.71067,-1.703003c-0.811813,-0.644653 -1.398262,-1.338654 -1.768494,-1.859497c-0.556065,-0.782257 -1.126621,-1.799835 -1.520836,-2.458313c-0.374386,-0.625366 -0.988674,-1.41684 -1.5,-2.020844c-0.841072,-0.9935 -1.290131,-1.575562 -1.553333,-2.200012c-0.40847,-0.969116 -0.436249,-1.820679 -0.446667,-2.966644c-0.007187,-0.790466 0,-1.354187 0,-2.23468c0,-1.195984 0.001804,-2.057007 0,-2.828003c-0.002251,-0.960815 -0.163242,-1.93866 -0.425335,-2.596008c-0.402744,-1.010101 -0.563709,-1.782928 -1,-2.574646c-0.452614,-0.82135 -0.574665,-1.700012 -0.574665,-2.600006l-0.085335,-0.799988" fill="none" id="svg_2" stroke="#000000" stroke-width="5"/>
  <path d="m284.5,301.5c1.833328,-0.166656 2.215225,-0.939117 3.100006,-1c0.897873,-0.061798 1.677261,-0.127625 2.420822,-0.5c0.937622,-0.469574 1.653793,-0.494659 2.726501,-0.5c0.919327,-0.004578 1.599335,0 2.439331,0c0.997345,0 1.813339,0 2.629333,0c1.001343,0 1.945343,0 3.017334,0c0.633331,0 1.645844,0 2.304169,0c1.098495,0 1.862503,0 2.862503,0c0.893997,0 1.666672,0 2.112,0c1.018661,0 2.221329,0 2.894836,0c0.714493,0 1.460999,0 2.230499,0c1.571991,0 2.356491,0 3.127991,0c1.468002,0 2.149536,-0.002655 2.800003,0.003998c0.628555,0.006439 1.856155,0.050262 2.472,0.104004c0.631302,0.055084 1.288956,0.120941 2.695999,0.391998c0.77652,0.149597 1.589798,0.349091 2.434509,0.571503c0.871384,0.229431 1.754852,0.484955 2.641495,0.760498c0.886398,0.275452 1.763168,0.552307 3.423996,1.167999c0.783829,0.290588 1.524796,0.593658 2.229004,0.895508c0.674393,0.289063 1.314087,0.580627 1.923004,0.8685c0.58371,0.27594 1.138824,0.550293 2.672165,1.314667c0.475891,0.237213 1.401749,0.69754 1.863327,0.921326c0.94014,0.455811 1.429138,0.691406 3.043167,1.421326c0.586777,0.26535 1.193878,0.531616 1.812012,0.804016c0.623871,0.274933 1.866638,0.820557 2.472,1.090668c1.153229,0.514587 2.200897,0.995483 2.684998,1.240326c0.932388,0.471588 1.389252,0.713257 2.248322,1.29834c0.905502,0.616699 1.352264,0.995178 2.262344,1.807831c0.466904,0.416931 0.925125,0.848022 1.789322,1.736664c0.41745,0.42926 1.180878,1.255981 1.811005,2.030151c0.560532,0.68866 1.028931,1.345947 1.451996,1.968018c0.610977,0.898346 1.216446,1.822357 1.568008,2.510651c0.375793,0.735718 0.690811,1.585968 0.949326,2.545349c0.136398,0.506226 0.352142,1.566284 0.440002,2.106659c0.174179,1.071136 0.290405,2.105835 0.362671,3.071991c0.068558,0.916687 0.104874,1.818939 0.136673,2.273346c0.100006,1.429047 0.229874,2.46286 0.299988,3c0.071213,0.545502 0.226013,1.643494 0.294678,2.189331c0.197556,1.570587 0.271912,2.534424 0.295502,2.990997c0.045074,0.872284 0.055908,1.705322 0.057159,2.914337c0.000824,0.802673 0,1.621735 -0.035995,2.471985c-0.038055,0.899231 -0.118668,1.862823 -0.250671,2.896027c-0.068756,0.538147 -0.246964,1.633575 -0.360001,2.181335c-0.224121,1.086029 -0.499161,2.124481 -0.839996,3.081329c-0.164993,0.463196 -0.543045,1.35437 -0.975006,2.217499c-0.218964,0.437531 -0.957275,1.774628 -1.223663,2.23584c-0.545441,0.944336 -0.829636,1.419617 -1.419174,2.363312c-0.293915,0.47049 -1.190887,1.834351 -1.496826,2.266022c-0.600037,0.846649 -0.906097,1.256104 -1.555832,2.024994c-0.32164,0.380615 -1.353043,1.453522 -2.108994,2.108978c-0.385361,0.334137 -1.214478,0.980743 -1.652679,1.305359c-0.45108,0.334137 -1.922867,1.369904 -2.449158,1.72998c-0.536362,0.366943 -1.079025,0.737549 -2.181335,1.455994c-0.543549,0.354248 -1.070816,0.711823 -2.60817,1.618347c-0.47226,0.278473 -1.398773,0.778595 -1.863327,1.001343c-0.934433,0.448059 -1.423126,0.664703 -3.043167,1.241486c-0.584763,0.208191 -1.192825,0.399475 -1.812012,0.589508c-1.245667,0.382324 -1.865448,0.55545 -2.472,0.725342c-1.150955,0.322388 -2.194061,0.606476 -3.143997,0.838654c-0.444611,0.108673 -1.289322,0.320496 -2.507996,0.480011c-0.799957,0.104706 -1.62114,0.138885 -2.472,0.155975c-0.898529,0.018036 -1.861359,0.015472 -2.895996,0.008026c-0.537369,-0.003876 -1.632629,-0.029205 -2.181335,-0.069336c-1.084259,-0.079315 -2.126724,-0.225922 -3.084,-0.498688c-0.937134,-0.267029 -1.388214,-0.469147 -2.329163,-0.838318c-0.491211,-0.192719 -2.100876,-0.792999 -2.689499,-0.99234c-0.605377,-0.205017 -1.22728,-0.399872 -2.472,-0.834656c-0.619675,-0.216461 -1.240082,-0.412567 -2.376007,-0.930664c-1.060089,-0.483521 -1.535675,-0.774292 -2.4375,-1.333344c-0.434021,-0.269043 -1.24617,-0.835846 -2.462997,-1.578674c-0.399567,-0.243927 -1.227219,-0.704407 -2.107498,-1.146667c-0.461304,-0.23175 -1.991653,-0.942108 -2.555664,-1.195984c-0.585312,-0.263489 -1.187622,-0.526306 -2.394669,-1.078674c-0.594803,-0.272186 -1.174744,-0.53656 -1.719009,-0.81601c-1.430084,-0.734283 -2.144958,-1.217194 -2.739334,-1.642334c-0.766739,-0.548431 -1.765442,-1.161652 -2.308655,-1.416321c-0.819199,-0.384033 -1.867355,-0.92807 -2.317505,-1.282501c-0.668671,-0.526489 -1.457169,-1.342834 -2.057175,-1.942841c-0.599991,-0.600006 -1.402878,-1.397156 -1.799988,-1.801331c-0.604431,-0.615204 -1.215134,-1.271912 -1.800171,-2.020172c-0.626968,-0.80188 -1.025314,-1.397308 -1.485168,-1.979828c-0.719604,-0.91156 -1.263351,-1.493683 -1.793839,-2.07782c-0.511505,-0.563232 -1.383194,-1.595215 -1.848831,-2.263519c-0.474838,-0.681519 -1.321075,-1.209656 -1.58667,-2.113312c-0.200058,-0.680664 -0.084656,-1.548004 -0.085327,-2.444183c-0.000671,-0.910492 0,-1.856995 0,-2.866486c0,-0.716003 0,-1.447998 0,-2.523499c0,-0.976501 -0.059723,-1.801544 0.057159,-2.700836c0.1064,-0.818665 0.456787,-1.612335 0.942841,-2.609009c0.291397,-0.597504 0.671997,-1.333923 0.97467,-2.374664c0.273193,-0.939331 0.628616,-1.591431 0.903824,-2.603821c0.190567,-0.70105 0.126801,-1.700623 0.342834,-2.564178c0.178818,-0.714783 0.466919,-1.442261 0.694672,-2.489349c0.166916,-0.767365 0.37117,-1.735077 0.584,-2.467987c0.338364,-1.165192 0.481995,-1.838165 0.5,-2.82132c0.015625,-0.85318 0,-1.793335 0,-2.67868c0,-0.799988 0.287949,-1.488495 0.878662,-2.221497c0.520859,-0.646332 0.615356,-1.568146 1.121338,-2.25766c0.484711,-0.660522 1.598007,-0.849426 1.914673,-1.720856c0.308701,-0.849518 0.568954,-1.554535 0.963989,-2.242828c0.37674,-0.656403 0.520798,-1.609863 0.954666,-2.557159c0.305466,-0.666962 0.682236,-1.505157 1.366669,-2.200012c0.496201,-0.503754 1.233612,-1.172485 1.716003,-1.998657c0.406509,-0.696198 1.05867,-1.226654 1.584,-1.801331l0.489334,-0.610657" fill="none" id="svg_4" stroke="#000000" stroke-width="5"/>
  <path d="m263.5,277.5c0,-1.700012 0.303513,-2.394562 0.833336,-3.166656c0.417984,-0.609131 0.017303,-1.696869 0.333328,-2.666687c0.225174,-0.69101 0.804733,-1.469727 0.833336,-2.333313c0.028275,-0.853729 0,-1.833344 0,-2.633331c0,-0.800018 -0.000534,-1.800018 0,-2.600006c0.000671,-1.001343 -0.006477,-1.842957 0.166664,-2.766663c0.149612,-0.798187 0.428352,-1.639496 0.549339,-2.23468c0.242386,-1.192383 0.2798,-2.123505 0.393829,-2.755829c0.183502,-1.017517 0.452621,-1.728973 0.740837,-2.46817c0.293037,-0.751556 0.653229,-1.472076 0.981331,-2.890671c0.150757,-0.651825 0.224884,-1.648788 0.501335,-2.650665c0.201202,-0.729172 0.527458,-1.469559 0.851997,-2.243988c0.331444,-0.790909 0.796417,-1.988113 0.930664,-2.388c0.264763,-0.788666 0.482353,-1.57518 0.768005,-2.31601c0.548866,-1.423447 0.950745,-2.065887 1.290665,-2.746658c0.35112,-0.703201 0.811195,-1.879044 0.940002,-2.306671c0.264534,-0.87822 0.470985,-1.782227 0.683998,-2.664001c0.296227,-1.226257 0.495567,-1.955399 0.701332,-2.626328c0.194557,-0.634369 0.599998,-1.841675 0.900002,-2.741669c0.200005,-0.600006 0.596352,-1.801239 0.799995,-2.397339c0.294739,-0.862808 0.567993,-1.6492 1.100006,-2.601837c0.377686,-0.676285 0.809128,-1.562012 1,-2.16333c0.31514,-0.992813 0.472641,-1.680176 0.800171,-2.594833c0.286789,-0.800873 0.660965,-1.546051 1.220993,-2.685669c0.32933,-0.670181 0.688492,-1.387009 0.968994,-2.166c0.423172,-1.175232 0.554688,-1.986496 0.648499,-2.769653c0.089569,-0.747849 0.075363,-1.464218 0.345337,-2.652008c0.172668,-0.759674 0.490875,-1.442093 0.630676,-2.453339c0.112091,-0.810822 0.084656,-1.631989 0.085327,-2.630661c0.00058,-0.874664 -0.066498,-1.889801 0.020828,-2.664505c0.114182,-1.012833 0.779343,-1.669189 0.958344,-2.520828c0.185181,-0.880981 -0.115723,-1.856644 0.304825,-2.699997c0.329926,-0.661652 0.876068,-1.412506 1.517334,-1.96933c0.697021,-0.60524 0.891846,-1.243149 1.398666,-2.22934c0.394714,-0.768082 0.872986,-1.603531 1.436005,-2.226669c0.655075,-0.725037 1.213882,-1.208771 1.768494,-1.836334c0.611115,-0.691513 1.210709,-1.501862 1.616333,-2.121658c0.448303,-0.684998 1.147568,-1.915726 1.400665,-2.380844c0.265656,-0.48819 0.813599,-1.522964 1.099335,-2.056656c0.288925,-0.539658 0.86821,-1.61972 1.479172,-2.645844c0.294449,-0.494553 0.906647,-1.438568 1.221329,-1.903992c0.645874,-0.955261 0.994858,-1.447739 1.349335,-1.968002c0.766678,-1.125275 1.174026,-1.745941 1.598663,-2.401337c0.442459,-0.682892 0.89357,-1.392349 1.351501,-2.122498c0.466095,-0.743179 0.933182,-1.497009 1.3965,-2.257507c0.920349,-1.510681 1.362396,-2.257782 1.797333,-2.994659c0.429382,-0.727463 0.850128,-1.448883 1.264511,-2.164505c0.41095,-0.709702 0.816727,-1.416092 1.219498,-2.119492c0.802139,-1.400879 1.201035,-2.102036 1.604004,-2.804001c0.405685,-0.706696 0.817139,-1.419571 1.238998,-2.139008c0.428772,-0.731247 0.869171,-1.474777 1.328995,-2.228989c0.955429,-1.567108 1.470474,-2.372986 1.99733,-3.197342c0.535782,-0.838318 1.082672,-1.682663 1.632004,-2.531998c0.549332,-0.849335 1.097275,-1.692993 1.632004,-2.531998c1.039764,-1.631439 1.526596,-2.424393 2,-3.198669c0.463913,-0.758743 0.916214,-1.508682 1.367996,-2.248505c0.449554,-0.736176 0.899979,-1.472397 1.367996,-2.203491c0.954468,-1.491013 1.471115,-2.240814 2,-2.998672c0.533752,-0.764847 1.080276,-1.524414 1.632004,-2.276993c0.546967,-0.746078 1.092529,-1.476288 1.632004,-2.187012c1.030594,-1.357758 1.524124,-1.990524 1.996002,-2.597321c0.452484,-0.581863 0.889099,-1.138855 1.309494,-1.674011c0.404953,-0.515503 0.796921,-1.012207 1.1745,-1.493988c0.722443,-0.921806 1.066132,-1.368385 1.405334,-1.804008c0.333817,-0.428696 0.665268,-0.851555 1.003494,-1.264496c0.337784,-0.412407 0.682343,-0.822388 1.048508,-1.219505c0.750519,-0.813957 1.169098,-1.205406 1.598663,-1.597328c0.433121,-0.395164 0.877075,-0.778908 1.332001,-1.141502c0.884018,-0.704582 1.30246,-1.054207 2.557159,-1.798164c0.717178,-0.42524 1.42067,-0.725861 2.091003,-1.008003c1.016479,-0.427834 1.733673,-0.740837 2.466507,-1.070999c0.72319,-0.325813 2.042328,-0.891289 2.875504,-1.0755c0.717773,-0.158699 1.680054,-0.262169 2.475998,-0.467003c0.920898,-0.236992 1.602722,-0.456665 2.776489,-0.742661c0.424255,-0.103371 1.306061,-0.299805 2.20668,-0.464172c0.880875,-0.160759 2.107117,-0.327942 2.849823,-0.37883c0.720886,-0.049393 1.463333,-0.054916 2.700836,-0.057167c0.951996,-0.001732 1.457993,0 2.5,0c0.524002,0 1.548004,0 2.935501,0c0.792999,0 1.501999,-0.000175 2.460495,0c0.904175,0.000168 1.818527,-0.013924 2.440002,0.071999c1.343307,0.185722 2.052887,0.479286 2.768005,0.789337c0.706589,0.306351 1.360641,0.625168 2.533493,1.3815c0.674911,0.435219 1.410095,0.847954 2.145172,1.189163c0.578247,0.26841 1.890549,1.059441 2.238663,1.332336c0.745804,0.584663 1.481354,1.274506 1.853333,1.631668c0.74678,0.717041 1.4608,1.435204 2.138672,2.11866c0.642029,0.647324 1.244385,1.27063 1.524994,1.580833c0.807831,0.893059 1.524475,1.805008 1.940842,2.467003c0.437729,0.695984 0.649384,1.080185 1.220657,2.40184c0.20993,0.485687 0.595016,1.531097 0.779343,2.077332c0.374893,1.110931 0.549042,1.673218 0.854156,2.791656c0.295853,1.084503 0.420471,1.630569 0.666672,2.75c0.128723,0.585266 0.253647,1.1978 0.384003,1.84201c0.284805,1.407562 0.438248,2.181274 0.598663,2.996002c0.166626,0.846268 0.334854,1.715454 0.496506,2.599487c0.162369,0.887985 0.319397,1.771698 0.451492,2.644501c0.252075,1.665649 0.333191,2.44838 0.398666,3.195999c0.062927,0.71846 0.1035,1.415802 0.128998,2.097c0.025101,0.670837 0.037415,1.337997 0.041672,3.375c0.00148,0.710007 0.000092,1.440002 -0.004501,2.190002c-0.004715,0.77002 -0.01358,1.560059 -0.031494,2.369995c-0.018356,0.830063 -0.036819,1.680634 -0.130676,3.440002c-0.048523,0.909531 -0.11525,1.83374 -0.194992,2.767502c-0.080231,0.939575 -0.174454,1.878983 -0.285004,2.8125c-0.109512,0.924835 -0.217865,1.837021 -0.520004,3.58667c-0.144745,0.838226 -0.314392,1.652588 -0.503998,2.451004c-0.189102,0.796326 -0.405167,1.592896 -0.647995,2.397003c-0.249649,0.826691 -0.523285,1.680176 -1.181335,3.485321c-0.355881,0.976242 -0.749802,1.986725 -1.162506,3.025513c-0.420578,1.058594 -0.855453,2.121521 -1.297501,3.178497c-0.43634,1.04335 -0.864685,2.061127 -1.706665,3.962662c-0.386536,0.87294 -0.76091,1.690781 -1.123489,2.461502c-0.345566,0.734558 -0.686157,1.435745 -1.024506,2.110504c-0.330719,0.659561 -0.662399,1.308319 -1.352005,2.594666c-0.352142,0.656876 -0.719559,1.322906 -1.095001,2.003998c-0.384537,0.697586 -0.780792,1.412216 -1.184998,2.147995c-0.415802,0.756897 -0.84613,1.535385 -1.720001,3.181335c-0.457718,0.862122 -0.917435,1.749939 -1.3815,2.653503c-0.467941,0.911102 -0.931778,1.825272 -1.390488,2.734497c-0.452271,0.896454 -0.892014,1.774673 -1.728012,3.445328c-0.390823,0.781006 -0.76413,1.529297 -1.132492,2.247009c-0.358383,0.698257 -0.716995,1.380554 -1.087509,2.048996c-0.37117,0.669617 -0.749512,1.346771 -1.613327,2.703995c-0.455032,0.714951 -0.949127,1.435318 -1.457993,2.167511c-0.515106,0.74118 -1.041626,1.478607 -1.56601,2.212494c-0.517624,0.724442 -1.032227,1.427582 -1.975998,2.786667c-0.439346,0.632675 -0.845871,1.241425 -1.2285,1.824005c-0.36528,0.556152 -0.709167,1.09256 -1.039505,1.608002c-0.318665,0.497223 -0.621872,0.982681 -1.231995,1.901321c-0.297211,0.447495 -0.600082,0.884872 -0.904495,1.318512c-0.304916,0.434372 -0.616241,0.869049 -0.931503,1.309494c-0.321075,0.448563 -0.652725,0.905624 -1.330673,1.871994c-0.356445,0.508087 -0.717834,1.034332 -1.085999,1.572006c-0.373169,0.544983 -0.747086,1.094833 -1.121994,1.643997c-0.372421,0.545502 -0.737625,1.085251 -1.458664,2.11734c-0.343414,0.491562 -0.680298,0.963409 -1.009506,1.418991c-0.32016,0.443069 -0.635712,0.873123 -0.946503,1.292999c-0.305557,0.412796 -0.609329,0.818665 -1.210663,1.621338c-0.597336,0.797333 -1.180099,1.577606 -1.458328,1.958328c-0.530075,0.725342 -1.223358,1.69899 -1.731842,2.531845c-0.437561,0.716675 -0.971588,1.67955 -1.295166,2.19516c-0.527527,0.840576 -0.919327,1.419037 -1.514664,2.314667c-0.398788,0.599915 -0.993042,1.491821 -1.342834,2.100006c-0.511017,0.888489 -0.904495,1.799988 -1.157166,2.399994c-0.25267,0.600006 -0.811386,1.805481 -1.152664,2.395508c-0.507355,0.877136 -0.876205,1.41156 -1.462006,2.417816c-0.372742,0.640289 -0.912216,1.501251 -1.38533,2.20752c-0.53096,0.792603 -0.779572,1.500122 -1.136002,2.264496c-0.49646,1.064636 -1.015106,1.766937 -1.384827,2.214661c-0.571243,0.691742 -1.186264,1.415833 -1.768509,2.214661c-0.379425,0.520569 -1.075867,1.428131 -1.563995,2.113342c-0.603424,0.847046 -0.716919,1.64624 -0.930664,2.441345c-0.203003,0.755096 -0.445679,1.54541 -0.667831,2.773499c-0.116714,0.645233 -0.468445,1.673553 -0.9095,2.257141c-0.46727,0.618286 -1.145447,1.383026 -1.617844,2.200012c-0.340271,0.58847 -0.832748,1.598969 -1.120834,2.235992c-0.417404,0.922974 -0.695358,1.718384 -1,2.538666c-0.394012,1.060913 -0.645126,1.799591 -1.035995,2.378662c-0.600098,0.889069 -1.391129,1.28476 -2.197327,1.84668c-0.670074,0.467041 -1.35228,1.22049 -1.838669,1.635986c-0.842484,0.719696 -1.580719,1.186462 -2.077332,1.538666c-0.921173,0.65332 -1.597565,1.191376 -2.133331,1.709351c-0.786789,0.760651 -1.328003,1.32666 -2.11734,2.115997c-0.595505,0.59549 -0.979172,0.979156 -1.833328,1.833344l-0.53067,0.53067" fill="none" id="svg_5" stroke="#000000" stroke-width="5"/>
  <path d="m332.5,118.5c0,1.800003 0,2.699997 0,3.599998c0,0.900002 0,1.704506 0,2.721504c0,0.699326 0,1.678497 0,2.4785c0,0.800003 0,1.800003 0,2.599991c0,1 0,1.800003 0,2.800003c0,0.800003 -0.057785,1.803589 0.021332,2.610672c0.086563,0.883087 0.540726,1.878586 0.839996,2.425323c0.478943,0.874954 0.98819,1.756683 1.253342,2.364014c0.388504,0.889893 0.572769,1.502747 0.985825,2.700165c0.208954,0.605743 0.573013,1.555527 0.955505,2.185165c0.651489,1.072479 0.981613,1.412659 1.641327,2.129333c0.681427,0.74025 1.036819,1.10054 2.136002,2.052002c0.669525,0.579544 1.338058,1.076508 1.992004,1.547989c0.655411,0.472549 1.342545,0.950348 2.062668,1.472c0.77063,0.558228 1.173111,0.856934 2.030838,1.475006c0.452423,0.326019 1.922714,1.361359 2.4505,1.720993c0.5392,0.367416 1.089066,0.736557 1.651489,1.096512c1.125214,0.720139 1.687469,1.067612 2.8125,1.6875c0.541107,0.298141 1.610947,0.82576 2.141342,1.061325c1.044815,0.46405 1.576187,0.66774 2.109329,0.869339c1.631256,0.616837 2.193909,0.8022 2.750671,0.993668c1.080536,0.371597 1.591568,0.551224 2.539993,0.838333c1.395142,0.422348 2.071518,0.513168 3.168503,0.79216c0.746231,0.189774 1.310974,0.400085 2.623505,0.778503c0.714294,0.205948 1.449188,0.395721 2.171997,0.600006c0.693176,0.195908 1.885254,0.613144 2.619659,0.879166c1.034454,0.37471 1.851807,0.499069 2.49884,0.516327c0.963669,0.025711 1.757492,0.006882 2.773499,0.004501c0.959518,-0.002258 1.950043,-0.134613 2.594666,-0.436005c0.707794,-0.330933 1.547501,-0.954819 2.274673,-1.664001c0.506226,-0.493698 1.207169,-1.192886 1.899994,-1.899994c0.50528,-0.515701 1.064133,-1.34436 1.5,-1.979172c0.556107,-0.809921 1.389664,-0.940811 2.314667,-1.031494c0.86203,-0.084503 1.400558,-0.928436 2.285339,-0.989334c0.897873,-0.061798 1.699997,0 2.614655,-0.085327l0.284012,-0.716003" fill="none" id="svg_6" stroke="#000000" stroke-width="5"/>
  <path d="m376.5,113.5c-1,1 -0.59726,1.936409 -1.085327,2.714668c-0.464325,0.74041 -0.5923,1.439133 -1.136002,2.164001c-0.482315,0.643021 -0.619324,1.41922 -1.131332,2.068665c-0.484543,0.614609 -0.65184,1.348167 -1.147339,2.052666l-0.489334,0.610672l-0.031494,0.8685" fill="none" id="svg_7" stroke="#000000" stroke-width="5"/>
 </g>
</svg>